# AST/ASF file generated using VICON BodyLanguage
# -----------------------------------------------
:version 1.10
:name VICON
:units
  mass 1.0
  length 0.45
  angle deg
:documentation
   .ast/.asf automatically generated from VICON data using
   VICON BodyBuilder and BodyLanguage model FoxedUp or BRILLIANT.MOD
:root
   order TX TY TZ RX RY RZ
   axis XYZ
   position 0 0 0  
   orientation 0 0 0 
:bonedata
  begin
     id 1 
     name lhipjoint
     direction 0.597014 -0.743513 0.301268 
     length 2.48253 
     axis 0 0 0  XYZ
  end
  begin
     id 2 
     name lfemur
     direction 0.34202 -0.939693 0  
     length 7.51389  
     axis 0 0 20  XYZ
    dof rx ry rz
    limits (-160.0 20.0)
           (-70.0 70.0)
           (-60.0 70.0)
  end
  begin
     id 3 
     name ltibia
     direction 0.34202 -0.939693 0   
     length 7.54147   
     axis 0 0 20   XYZ
    dof rx
    limits (-10.0 170.0)
  end
  begin
     id 4 
     name lfoot
     direction 0.10378 -0.285133 0.952853   
     length 2.2132   
     axis -90 7.62852e-016 20   XYZ
    dof rx rz
    limits (-45.0 90.0)
           (-70.0 20.0)
  end
  begin
     id 5 
     name ltoes
     direction 1.5354e-011 -4.2171e-011 1   
     length 1.10362   
     axis -90 7.62852e-016 20   XYZ
    dof rx
    limits (-90.0 20.0)
  end
  begin
     id 6 
     name rhipjoint
     direction -0.591912 -0.747009 0.302685   
     length 2.47092  
     axis 0 0 0  XYZ 
  end
  begin
     id 7 
     name rfemur
     direction -0.34202 -0.939693 0   
     length 7.69991   
     axis 0 0 -20   XYZ
    dof rx ry rz
    limits (-160.0 20.0)
           (-70.0 70.0)
           (-70.0 60.0)
  end
  begin
     id 8 
     name rtibia
     direction -0.34202 -0.939693 0   
     length 7.40774   
     axis 0 0 -20   XYZ
    dof rx
    limits (-10.0 170.0)
 end
 begin
     id 9 
     name rfoot
     direction -0.0916245 -0.251736 0.963449   
     length 2.08235  
     axis -90 -7.62852e-016 -20   XYZ
    dof rx rz
    limits (-45.0 90.0)
           (-20.0 70.0)
  end
  begin
     id 10 
     name rtoes
     direction -1.53527e-011 -4.21878e-011 1   
     length 1.04369   
     axis -90 -7.62852e-016 -20   XYZ
    dof rx
    limits (-90.0 20.0)
  end
  begin
     id 11 
     name lowerback
     direction -0.0122523 0.991496 -0.12956   
     length 2.10814   
     axis 0 0 0   XYZ
    dof rx ry rz
    limits (-20.0 45.0)
           (-30.0 30.0)
           (-30.0 30.0)
  end
  begin
     id 12 
     name upperback
     direction 0.012378 0.999784 -0.0167122   
     length 2.11728   
     axis 0 0 0   XYZ
    dof rx ry rz
    limits (-20.0 45.0)
           (-30.0 30.0)
           (-30.0 30.0)
  end
  begin
     id 13 
     name thorax
     direction 0.0187236 0.998893 0.0431542   
     length 2.15267   
     axis 0 0 0   XYZ
    dof rx ry rz
    limits (-20.0 45.0)
           (-30.0 30.0)
           (-30.0 30.0)
  end
  begin
     id 14 
     name lowerneck
     direction 0.0165467 0.987304 0.157979   
     length 1.72129   
     axis 0 0 0   XYZ
    dof rx ry rz
    limits (-20.0 45.0)
           (-30.0 30.0)
           (-30.0 30.0)
  end
  begin
     id 15 
     name upperneck
     direction -0.0560236 0.986819 -0.151818   
     length 1.75382   
     axis 0 0 0   XYZ
    dof rx ry rz
    limits (-20.0 45.0)
           (-30.0 30.0)
           (-30.0 30.0)
  end
  begin
     id 16
     name head
     direction -0.0173602 0.99745 -0.0692312  
     length 1.76328  
     axis 0 0 0   XYZ
    dof rx ry rz
    limits (-20.0 45.0)
           (-30.0 30.0)
           (-30.0 30.0)
  end
  begin
     id 17 
     name lclavicle
     direction 0.957734 0.271724 -0.094399  
     length 3.5782  
     axis 0 0 0   XYZ
    dof ry rz
    limits (-20.0 10.0)
           (0.0 20.0)
  end
  begin
     id 18 
     name lhumerus
     direction 1 -4.48963e-011 1.21581e-027   
     length 5.25525   
     axis 180 -30 -90   XYZ
    dof rx ry rz
    limits (-60.0 90.0)
           (-90.0 90.0)
           (-90.0 90.0)
  end
  begin
     id 19
     name lradius
     direction 1 -4.48975e-011 3.71216e-028   
     length 3.35106   
     axis 180 -30 -90   XYZ
    dof rx
    limits (-10.0 170.0)
  end
  begin
     id 20
     name lwrist
     direction 1 -4.48957e-011 4.76535e-027   
     length 1.67553   
     axis -3.27501e-015 90 90   XYZ
    dof ry
    limits (-180.0 0.0)
 end
  begin
     id 21 
     name lhand
     direction 1 -4.49008e-011 9.52727e-027   
     length 0.574153   
     axis -6.08097e-015 90 90   XYZ
    dof rx rz
    limits (-90.0 90.0)
           (-45.0 45.0)
  end
  begin
     id 22 
     name lfingers
     direction 1 -4.48996e-011 1.90562e-026   
     length 0.462897   
     axis -1.21618e-014 90 90   XYZ
    dof rx
    limits (0.0 90.0)
  end
  begin
     id 23
     name lthumb
     direction 0.707107 -6.34908e-011 0.707107   
     length 0.66463   
     axis -90 45 -1.62303e-014   XYZ
    dof rx rz
    limits (-45.0 45.0)
           (-45.0 45.0)
  end
  begin
     id 24 
     name rclavicle
     direction -0.950439 0.29623 -0.0944132   
     length 3.45861  
     axis 0 0 0   XYZ 
    dof ry rz
    limits (-10.0 20.0)
           (-20.0 0.0)
  end
  begin
     id 25 
     name rhumerus
     direction -1 -4.48986e-011 1.25473e-027  
     length 5.33104   
     axis 180 30 90   XYZ
    dof rx ry rz
    limits (-90.0 60.0)
           (-90.0 90.0)
           (-90.0 90.0)
  end
  begin
     id 26 
     name rradius
     direction -1 -4.4894e-011 1.66273e-027   
     length 3.39883   
     axis 180 30 90   XYZ
    dof rx
    limits (-10.0 170.0)
  end
  begin
     id 27 
     name rwrist
     direction -1 -4.48946e-011 4.76572e-027   
     length 1.69941   
     axis -3.27501e-015 -90 -90   XYZ
    dof ry
    limits (-180.0 0.0)
  end
  begin
     id 28
     name rhand
     direction -1 -4.49028e-011 9.52595e-027   
     length 0.913886   
     axis -6.08097e-015 -90 -90   XYZ
    dof rx rz
    limits (-90.0 90.0)
           (-45.0 45.0)
  end
  begin
     id 29
     name rfingers
     direction -1 -4.48945e-011 1.9063e-026   
     length 0.736798   
     axis -1.21618e-014 -90 -90   XYZ
    dof rx
    limits (0.0 90.0)
  end
  begin
     id 30
     name rthumb
     direction -0.707107 -6.34966e-011 0.707107   
     length 1.0579   
     axis -90 -45 1.62303e-014   XYZ
    dof rx rz
    limits (-45.0 45.0)
           (-45.0 45.0)
  end
:hierarchy
  begin
    root lhipjoint rhipjoint lowerback
    lhipjoint lfemur
    lfemur ltibia
    ltibia lfoot
    lfoot ltoes
    rhipjoint rfemur
    rfemur rtibia
    rtibia rfoot
    rfoot rtoes
    lowerback upperback
    upperback thorax
    thorax lowerneck lclavicle rclavicle
    lowerneck upperneck
    upperneck head
    lclavicle lhumerus
    lhumerus lradius
    lradius lwrist
    lwrist lhand lthumb
    lhand lfingers
    rclavicle rhumerus
    rhumerus rradius
    rradius rwrist
    rwrist rhand rthumb
    rhand rfingers
  end

#!OML:ASF F:\VICON\USERDATA\INSTALL\rory3\rory3.ASF
:FULLY-SPECIFIED
:DEGREES
677
root -6.33321 17.195 38.8948 175.8 0.37821 -183.675
lowerback 11.7395 0.145085 -3.9871
upperback 3.03417 0.0171523 -0.7626
thorax -3.39468 0.170306 1.44166
lowerneck -20.8968 4.15482 4.97835
upperneck 13.6689 5.80769 -8.03981
head 8.04717 2.26892 -2.74154
rclavicle 4.18069e-015 1.10822e-014
rhumerus -15.0753 10.505 -83.5365
rradius 92.0297
rwrist 7.6837
rhand -13.1802 12.8029
rfingers 7.12502
rthumb 12.9195 -16.7771
lclavicle 4.18069e-015 1.10822e-014
lhumerus -26.0037 -12.6388 91.3935
lradius 87.2775
lwrist 8.98628
lhand -11.1765 24.41
lfingers 7.12502
lthumb 14.8505 53.8578
rfemur -9.48774 3.63834 3.03513
rtibia 34.6525
rfoot -14.1182 -18.0175
rtoes 2.99597
lfemur -11.1091 -0.843986 -29.7456
ltibia 39.4137
lfoot -17.7556 -1.8966
ltoes 9.41252
678
root -6.31939 17.1899 38.9525 175.199 -0.662186 -183.306
lowerback 12.9059 0.342203 -3.4953
upperback 3.0433 -0.393069 -0.642565
thorax -4.02377 -0.316785 1.37447
lowerneck -20.7648 4.01061 4.90485
upperneck 13.2352 5.58052 -7.93318
head 7.85829 2.17616 -2.72379
rclavicle -1.25483e-015 2.18663e-015
rhumerus -13.4354 11.5027 -83.3448
rradius 93.492
rwrist 7.17377
rhand -13.2501 12.988
rfingers 7.12502
rthumb 12.8521 -16.5963
lclavicle -1.25483e-015 2.18663e-015
lhumerus -24.5946 -13.8652 91.3835
lradius 89.3434
lwrist 9.41871
lhand -10.9269 24.545
lfingers 7.12502
lthumb 15.0909 53.9749
rfemur -8.58686 3.50707 3.5008
rtibia 34.6682
rfoot -14.6209 -18.4424
rtoes 5.09171
lfemur -10.6357 -1.61752 -29.4295
ltibia 39.4203
lfoot -17.4696 -1.9821
ltoes 9.37846
679
root -6.32138 17.208 38.9412 175.691 -0.073086 -183.39
lowerback 11.8704 0.176698 -3.65972
upperback 2.93956 0.082654 -0.683303
thorax -3.57039 0.200749 1.33013
lowerneck -20.7345 4.06228 4.72732
upperneck 13.0439 5.46229 -7.75803
head 7.77198 2.02737 -2.66527
rclavicle 2.49723e-015 1.24737e-014
rhumerus -11.5964 12.554 -83.0072
rradius 94.9361
rwrist 6.39632
rhand -13.0594 12.6742
rfingers 7.12502
rthumb 13.0359 -16.8984
lclavicle 2.49723e-015 1.24737e-014
lhumerus -23.1473 -14.9321 91.2375
lradius 91.5449
lwrist 9.81289
lhand -10.3663 24.6892
lfingers 7.12502
lthumb 15.6309 54.0777
rfemur -9.30118 3.59288 3.39394
rtibia 34.6049
rfoot -14.2405 -18.2281
rtoes 4.22775
lfemur -11.1607 -1.01309 -29.4115
ltibia 39.4122
lfoot -17.4877 -2.09689
ltoes 9.88789
680
root -6.31682 17.2091 38.966 175.648 -0.339457 -183.442
lowerback 12.0376 0.542895 -3.55682
upperback 2.83307 -0.0611036 -0.687177
thorax -3.78319 -0.135961 1.30657
lowerneck -20.7201 4.00487 4.67718
upperneck 12.9283 5.38064 -7.69588
head 7.7222 1.99509 -2.64656
rclavicle 2.7395e-015 8.74653e-015
rhumerus -9.60022 13.6415 -82.5369
rradius 96.2569
rwrist 5.40074
rhand -13.1407 12.3093
rfingers 7.12502
rthumb 12.9576 -17.2684
lclavicle 2.7395e-015 8.74653e-015
lhumerus -21.7596 -15.7534 90.9637
lradius 93.8532
lwrist 10.2538
lhand -9.37541 24.8077
lfingers 7.12502
lthumb 16.585 54.119
rfemur -9.19178 3.45692 3.33863
rtibia 34.4891
rfoot -14.1302 -18.3879
rtoes 3.38901
lfemur -11.2291 -1.1477 -29.4638
ltibia 39.467
lfoot -17.3899 -2.13408
ltoes 9.92054
681
root -6.30944 17.2152 38.9887 175.549 -0.410783 -183.104
lowerback 11.8034 0.577179 -3.20682
upperback 3.10344 0.0257893 -0.641984
thorax -3.37639 -0.112858 1.14354
lowerneck -21.0033 3.94575 4.92286
upperneck 12.4642 5.22038 -7.89651
head 7.61799 1.91153 -2.77072
rclavicle 2.67738e-015 -7.45443e-015
rhumerus -6.85509 14.3961 -81.8769
rradius 97.2557
rwrist 4.32472
rhand -13.5779 12.3725
rfingers 7.12502
rthumb 12.5361 -17.2314
lclavicle 2.67738e-015 -7.45443e-015
lhumerus -19.7961 -16.7496 90.437
lradius 96.1411
lwrist 10.4905
lhand -9.23701 24.959
lfingers 7.12502
lthumb 16.7183 54.2591
rfemur -9.08329 3.55029 3.77508
rtibia 34.4432
rfoot -14.266 -18.4859
rtoes 4.66571
lfemur -11.2124 -1.15975 -29.0605
ltibia 39.4597
lfoot -17.3083 -2.13684
ltoes 9.71171
